<svg width="177" height="71" fill="none" xmlns="http://www.w3.org/2000/svg"><path d="M32.896 24.182h5.69l6.008 14.659h.255l6.009-14.66h5.689V46h-4.475V31.799h-.18l-5.647 14.095h-3.047l-5.646-14.148h-.181V46h-4.475V24.182Zm32.032 22.127c-1.044 0-1.974-.181-2.79-.543a4.494 4.494 0 0 1-1.94-1.63c-.468-.725-.703-1.627-.703-2.706 0-.91.167-1.673.5-2.29a4.054 4.054 0 0 1 1.365-1.492 6.611 6.611 0 0 1 1.96-.853 14.946 14.946 0 0 1 2.322-.404c.952-.1 1.719-.192 2.301-.277.583-.093 1.005-.228 1.268-.405.263-.178.394-.44.394-.789v-.064c0-.674-.213-1.196-.639-1.566-.419-.369-1.015-.553-1.79-.553-.816 0-1.466.18-1.95.543-.482.355-.802.802-.958 1.342l-4.197-.34c.213-.995.632-1.854 1.257-2.579.625-.731 1.43-1.293 2.418-1.683.994-.398 2.145-.597 3.452-.597.909 0 1.779.107 2.61.32.838.213 1.58.543 2.226.99a4.815 4.815 0 0 1 1.545 1.726c.376.697.565 1.531.565 2.504V46H69.84v-2.27h-.128a4.617 4.617 0 0 1-1.055 1.354 4.88 4.88 0 0 1-1.587.905c-.618.213-1.332.32-2.142.32Zm1.3-3.132c.668 0 1.257-.132 1.769-.394.511-.27.912-.632 1.204-1.087.29-.454.436-.97.436-1.545v-1.736a2.436 2.436 0 0 1-.586.255c-.241.072-.515.139-.82.203-.305.057-.61.11-.916.16-.306.042-.583.081-.831.117a5.617 5.617 0 0 0-1.396.373c-.397.17-.706.401-.927.692-.22.284-.33.64-.33 1.066 0 .617.224 1.09.671 1.416.455.32 1.03.48 1.726.48Zm13.653 8.96a8.993 8.993 0 0 1-1.62-.14 5.897 5.897 0 0 1-1.236-.33l1.023-3.387c.533.163 1.012.252 1.438.266.434.014.806-.085 1.119-.298.32-.213.579-.575.778-1.087l.266-.692-5.87-16.833h4.773l3.387 12.017h.17l3.42-12.017h4.805l-6.36 18.133a7.615 7.615 0 0 1-1.246 2.3 5.109 5.109 0 0 1-1.971 1.524c-.796.362-1.754.543-2.877.543ZM94.742 46V24.182h8.736c1.605 0 2.944.238 4.016.714 1.073.475 1.879 1.136 2.418 1.981.54.838.81 1.804.81 2.898 0 .852-.17 1.601-.511 2.248a4.419 4.419 0 0 1-1.406 1.576 5.772 5.772 0 0 1-2.025.863v.213c.831.036 1.609.27 2.333.704.732.433 1.325 1.04 1.78 1.821.454.774.681 1.698.681 2.77 0 1.158-.287 2.191-.863 3.1-.568.902-1.409 1.616-2.524 2.142-1.115.525-2.49.788-4.123.788h-9.322Zm4.613-3.771h3.761c1.285 0 2.223-.245 2.812-.735.59-.498.884-1.158.884-1.982 0-.604-.145-1.136-.436-1.598-.292-.462-.707-.824-1.247-1.087-.533-.262-1.168-.394-1.907-.394h-3.867v5.796Zm0-8.917h3.42c.632 0 1.193-.11 1.683-.33a2.8 2.8 0 0 0 1.172-.96c.291-.411.437-.905.437-1.48 0-.788-.281-1.424-.842-1.907-.554-.483-1.342-.725-2.365-.725h-3.505v5.402Zm22.593 13.008c-1.683 0-3.132-.341-4.346-1.023a7.006 7.006 0 0 1-2.792-2.92c-.653-1.263-.98-2.758-.98-4.484 0-1.684.327-3.16.98-4.432.654-1.271 1.574-2.262 2.76-2.972 1.193-.71 2.592-1.066 4.197-1.066 1.08 0 2.085.174 3.015.522a6.69 6.69 0 0 1 2.45 1.545c.703.689 1.25 1.555 1.641 2.6.39 1.036.586 2.25.586 3.643v1.246h-13.818v-2.812h9.546c0-.654-.142-1.232-.426-1.737a3.054 3.054 0 0 0-1.183-1.182c-.497-.291-1.076-.437-1.736-.437-.689 0-1.3.16-1.833.48a3.371 3.371 0 0 0-1.236 1.267 3.582 3.582 0 0 0-.458 1.758v2.674c0 .81.149 1.51.448 2.099.305.59.735 1.044 1.289 1.363.554.32 1.211.48 1.971.48.504 0 .966-.071 1.385-.213a2.881 2.881 0 0 0 1.076-.64c.298-.284.525-.632.681-1.044l4.198.278a5.735 5.735 0 0 1-1.31 2.642c-.654.745-1.499 1.328-2.536 1.747-1.03.412-2.219.618-3.569.618Zm15.011-22.138V46h-4.539V24.182h4.539Zm8.174 0V46h-4.539V24.182h4.539Z" fill="#fff"/><circle cx="150.5" cy="20.5" r="3.5" fill="#fff"/></svg>