<svg width="46" height="32" fill="none" xmlns="http://www.w3.org/2000/svg"><rect x=".5" y=".5" width="45" height="31" rx="3.5" fill="#fff"/><path fill-rule="evenodd" clip-rule="evenodd" d="m19.486 24.598.294-1.932-.656-.016h-3.13l2.175-14.258a.19.19 0 0 1 .061-.112.175.175 0 0 1 .116-.044h5.279c1.752 0 2.962.377 3.593 1.12.296.35.485.714.576 1.116.095.42.097.924.004 1.537l-.007.045v.393l.296.174c.25.136.447.293.6.472.252.299.416.678.485 1.127.072.463.048 1.013-.069 1.636-.135.717-.353 1.34-.648 1.851-.271.47-.617.861-1.027 1.164a4.104 4.104 0 0 1-1.383.645 6.694 6.694 0 0 1-1.73.206h-.41c-.294 0-.579.11-.803.306-.225.2-.373.473-.419.772l-.03.174-.52 3.406-.024.125c-.007.04-.017.059-.033.072a.085.085 0 0 1-.054.02h-2.536Z" fill="#28356A"/><path fill-rule="evenodd" clip-rule="evenodd" d="M28.367 12.1c-.015.104-.033.21-.053.32-.697 3.694-3.078 4.97-6.12 4.97h-1.549a.76.76 0 0 0-.743.658l-1.018 6.671a.405.405 0 0 0 .392.474h2.747a.668.668 0 0 0 .652-.576l.027-.144.517-3.393.034-.186a.668.668 0 0 1 .652-.577h.411c2.662 0 4.745-1.116 5.354-4.348.254-1.35.122-2.477-.55-3.27a2.633 2.633 0 0 0-.753-.6Z" fill="#298FC2"/><path fill-rule="evenodd" clip-rule="evenodd" d="M27.639 11.8a5.287 5.287 0 0 0-.677-.156 8.33 8.33 0 0 0-1.365-.103h-4.138a.638.638 0 0 0-.285.067.68.68 0 0 0-.367.51l-.88 5.762-.025.168a.76.76 0 0 1 .743-.658h1.549c3.041 0 5.423-1.277 6.12-4.97.02-.11.038-.216.053-.32a3.641 3.641 0 0 0-.728-.3Z" fill="#22284F"/><path fill-rule="evenodd" clip-rule="evenodd" d="M20.807 12.118a.677.677 0 0 1 .367-.51.64.64 0 0 1 .286-.066h4.137c.49 0 .948.033 1.365.103a5.374 5.374 0 0 1 .833.205c.206.07.397.154.573.25.207-1.365-.002-2.295-.716-3.137-.787-.926-2.208-1.323-4.026-1.323h-5.28a.762.762 0 0 0-.745.659l-2.198 14.405a.464.464 0 0 0 .447.542h3.259l1.698-11.128Z" fill="#28356A"/><rect x=".5" y=".5" width="45" height="31" rx="3.5" stroke="#F9F7F6"/></svg>