<svg width="46" height="32" fill="none" xmlns="http://www.w3.org/2000/svg"><rect x=".5" y=".5" width="45" height="31" rx="3.5" fill="#fff"/><path fill-rule="evenodd" clip-rule="evenodd" d="m24.358 10.856-2.303.509V9.443l2.303-.5v1.913Zm4.788 1.065c-.899 0-1.477.433-1.798.734l-.119-.584h-2.018v10.986l2.293-.5.01-2.666c.33.245.816.594 1.623.594 1.643 0 3.138-1.357 3.138-4.344-.01-2.732-1.523-4.22-3.128-4.22Zm-.55 6.49c-.541 0-.862-.197-1.083-.442l-.009-3.495c.239-.274.57-.462 1.092-.462.835 0 1.413.961 1.413 2.195 0 1.263-.569 2.205-1.413 2.205Zm10.909-2.176c0-2.411-1.138-4.314-3.312-4.314-2.184 0-3.505 1.903-3.505 4.296 0 2.835 1.56 4.268 3.798 4.268 1.092 0 1.918-.255 2.542-.613v-1.884c-.624.32-1.34.518-2.248.518-.89 0-1.679-.32-1.78-1.432h4.486c0-.052.004-.17.008-.306.005-.184.01-.402.01-.533Zm-4.533-.894c0-1.065.633-1.508 1.212-1.508.56 0 1.156.443 1.156 1.508h-2.368Zm-12.918-3.26h2.303v8.243h-2.302v-8.243Zm-2.614 0 .147.697c.541-1.018 1.614-.81 1.908-.697v2.167c-.284-.104-1.202-.236-1.743.49v5.586h-2.294v-8.243h1.982ZM15 10.036l-2.24.49-.008 7.547c0 1.394 1.018 2.421 2.376 2.421.752 0 1.303-.141 1.605-.31V18.27c-.293.123-1.743.556-1.743-.838v-3.345h1.743v-2.006H14.99l.01-2.045Zm-5.423 3.929c-.486 0-.78.141-.78.509 0 .4.506.577 1.133.796 1.021.357 2.366.827 2.372 2.567 0 1.687-1.312 2.657-3.22 2.657-.79 0-1.652-.16-2.505-.537v-2.242c.77.433 1.743.753 2.505.753.514 0 .88-.14.88-.574 0-.445-.547-.648-1.208-.893-1.007-.373-2.278-.845-2.278-2.414 0-1.668 1.239-2.666 3.101-2.666a5.91 5.91 0 0 1 2.275.433v2.214c-.697-.386-1.578-.603-2.275-.603Z" fill="#6461FC"/><rect x=".5" y=".5" width="45" height="31" rx="3.5" stroke="#F9F7F6"/></svg>