<svg width="46" height="32" fill="none" xmlns="http://www.w3.org/2000/svg"><rect x=".5" y=".5" width="45" height="31" rx="3.5" fill="#fff"/><path fill-rule="evenodd" clip-rule="evenodd" d="M33.16 15.913c0 5.843-4.737 10.58-10.58 10.58S12 21.757 12 15.913c0-5.843 4.737-10.58 10.58-10.58s10.58 4.737 10.58 10.58Zm-8.038-3.93c1.471.505 2.548 1.262 2.337 2.67-.154 1.031-.727 1.53-1.49 1.705 1.046.542 1.403 1.572 1.072 2.816-.63 1.792-2.124 1.942-4.113 1.568l-.483 1.926-1.165-.29.476-1.9a48.834 48.834 0 0 1-.93-.24l-.477 1.91-1.165-.29.483-1.93-2.348-.59.58-1.33s.858.227.846.21c.33.082.477-.133.535-.275l1.308-5.226c.015-.247-.07-.558-.543-.676.018-.012-.847-.21-.847-.21l.31-1.24 2.352.58.478-1.907 1.165.29-.469 1.87c.314.07.629.142.935.219l.465-1.859 1.165.29-.477 1.909Zm-2.79 3.182c.795.21 2.523.668 2.824-.533.307-1.228-1.372-1.6-2.193-1.781-.094-.02-.176-.039-.243-.056l-.58 2.32c.055.013.12.03.193.05Zm-.899 3.734c.951.25 3.031.798 3.362-.525.339-1.353-1.678-1.804-2.662-2.024-.11-.024-.207-.046-.286-.066l-.64 2.556.226.059Z" fill="#F7931A"/><rect x=".5" y=".5" width="45" height="31" rx="3.5" stroke="#F9F7F6"/></svg>