<svg width="46" height="32" fill="none" xmlns="http://www.w3.org/2000/svg"><rect x=".5" y=".5" width="45" height="31" rx="5.5" fill="#fff"/><path fill-rule="evenodd" clip-rule="evenodd" d="M22.905 22.44a9.07 9.07 0 0 1-5.864 2.133c-4.993 0-9.041-4-9.041-8.933 0-4.934 4.048-8.933 9.04-8.933a9.07 9.07 0 0 1 5.865 2.134 9.07 9.07 0 0 1 5.865-2.134c4.993 0 9.04 4 9.04 8.933 0 4.934-4.047 8.933-9.04 8.933a9.07 9.07 0 0 1-5.865-2.134Z" fill="#ED0006"/><path fill-rule="evenodd" clip-rule="evenodd" d="M22.905 22.44a8.87 8.87 0 0 0 3.177-6.8 8.87 8.87 0 0 0-3.177-6.8 9.07 9.07 0 0 1 5.865-2.133c4.993 0 9.04 4 9.04 8.933 0 4.934-4.047 8.933-9.04 8.933a9.07 9.07 0 0 1-5.865-2.134Z" fill="#F9A000"/><path fill-rule="evenodd" clip-rule="evenodd" d="M22.905 22.44a8.87 8.87 0 0 0 3.177-6.8 8.87 8.87 0 0 0-3.177-6.8 8.87 8.87 0 0 0-3.176 6.8 8.87 8.87 0 0 0 3.176 6.8Z" fill="#FF5E00"/><rect x=".5" y=".5" width="45" height="31" rx="5.5" stroke="#F9F7F6"/></svg>