<svg width="800" height="800" viewBox="0 0 50 50" xmlns="http://www.w3.org/2000/svg"><path d="M13.938 12c-5.45 0-9.907 4.426-9.907 9.875v2.281c-2.289.578-4 2.668-4 5.125 0 2.215 1.43 4.04 3.375 4.813l2.438 6.343.031.094h.031a4.28 4.28 0 0 0 1.157 1.813l-1.75 3.531c-.7 1.395-.145 3.113 1.25 3.813.402.203.851.312 1.28.312 1.044 0 2.067-.574 2.563-1.563L12.594 44h24.812l2.188 4.438c.496.988 1.52 1.562 2.562 1.562.43 0 .88-.11 1.282-.313 1.394-.699 1.949-2.417 1.25-3.812l-1.75-3.531a4.28 4.28 0 0 0 1.156-1.813h.031l.031-.093 2.438-6.344c1.945-.774 3.375-2.598 3.375-4.813 0-2.457-1.711-4.547-4-5.125v-2.281c0-5.45-4.457-9.875-9.907-9.875Zm0 2h22.124c4.368 0 7.907 3.508 7.907 7.875v2.188a5.266 5.266 0 0 0-4.157 3.312h-.03l-1.626 3.719c-.133-.043-.21-.074-.375-.125a46.997 46.997 0 0 0-3.093-.813C32.136 29.578 28.723 29 25.124 29c-3.598 0-7.078.574-9.688 1.156-1.304.29-2.41.582-3.187.813-.176.05-.266.082-.406.125l-1.531-3.438h-.032a5.261 5.261 0 0 0-4.25-3.593v-2.188c0-4.367 3.54-7.875 7.907-7.875ZM5.312 26c1.489 0 2.727.984 3.125 2.344v.062l.032.063 1.937 4.281.469 1.031.844-.531.094-.063c.015-.011 0 .02.03 0 .04-.015.071-.011.126-.03.199-.067.476-.173.844-.282.738-.215 1.804-.5 3.062-.781 2.512-.559 5.867-1.094 9.25-1.094s6.676.54 9.125 1.094c1.223.277 2.227.566 2.938.781.355.11.652.184.843.25.094.031.145.078.188.094h.031l.875.531.469-1.031 2.031-4.532v-.03l.031-.032C42.121 26.883 43.277 26 44.688 26a3.276 3.276 0 0 1 3.28 3.281c0 1.508-1.023 2.742-2.406 3.125l-.5.125-.156.469-2.656 6.813v.03l-.031.032c-.293 1.02-1.157 1.547-2.125 1.844a5.99 5.99 0 0 1-1.688.281 1.014 1.014 0 0 0-.812 0H12.375a.997.997 0 0 0-.75 0c-.164 0-.86-.016-1.719-.281-.969-.297-1.832-.824-2.125-1.844l-.031-.031v-.063L5.094 33l-.157-.469-.5-.125c-1.386-.383-2.406-1.617-2.406-3.125A3.276 3.276 0 0 1 5.312 26Zm3.47 17.406c.175.07.363.168.53.219.403.125.778.195 1.126.25l-1.844 3.656a.824.824 0 0 1-1.125.375.817.817 0 0 1-.375-1.125Zm32.437 0 1.687 3.375c.215.43.055.91-.375 1.125a.832.832 0 0 1-.375.094.817.817 0 0 1-.75-.469l-1.843-3.656a7.793 7.793 0 0 0 1.124-.25c.168-.05.356-.148.532-.219Z"/></svg>